<?xml version="1.0" encoding="utf-8"?>
<!-- Generator: Adobe Illustrator 23.0.3, SVG Export Plug-In . SVG Version: 6.00 Build 0)  -->
<svg version="1.1" id="Layer_1" xmlns="http://www.w3.org/2000/svg" xmlns:xlink="http://www.w3.org/1999/xlink" x="0px" y="0px"
	 viewBox="0 0 83 152.2" style="enable-background:new 0 0 83 152.2;" xml:space="preserve">
<style type="text/css">
	.st0{fill-rule:evenodd;clip-rule:evenodd;fill:#26D780;}
	.st1{fill-rule:evenodd;clip-rule:evenodd;fill:#005251;}
</style>
<title>Group 24</title>
<g id="Symbols">
	
		<g id="Group-24" transform="translate(41.500000, 76.040557) rotate(-90.000000) translate(-41.500000, -76.040557) translate(-34.577989, 34.540557)">
		<polygon id="Fill-1-Copy" class="st0" points="9,0 9,83 56.1,83 56.1,0 		"/>
		<polygon id="Fill-4-Copy" class="st0" points="50,0 50,83 98.6,83 98.6,0 		"/>
		<polygon id="Fill-5-Copy" class="st0" points="99,0 99,83 144.6,83 144.6,0 		"/>
		<polygon id="Fill-8-Copy" class="st1" points="0,0 0,83 20.1,83 20.1,0 		"/>
		<polygon id="Fill-9-Copy" class="st1" points="43,0 43,83 63.1,83 63.1,0 		"/>
		<polygon id="Fill-10-Copy" class="st1" points="87,0 87,83 107.1,83 107.1,0 		"/>
		<polygon id="Fill-11-Copy" class="st1" points="132,0 132,83 152.1,83 152.1,0 		"/>
	</g>
</g>
</svg>
