<?xml version="1.0" encoding="utf-8"?>
<!-- Generator: Adobe Illustrator 23.0.3, SVG Export Plug-In . SVG Version: 6.00 Build 0)  -->
<svg version="1.1" id="Layer_1" xmlns="http://www.w3.org/2000/svg" xmlns:xlink="http://www.w3.org/1999/xlink" x="0px" y="0px"
	 viewBox="0 0 320 202" style="enable-background:new 0 0 320 202;" xml:space="preserve">
<style type="text/css">
	.st0{fill-rule:evenodd;clip-rule:evenodd;fill:#26D780;}
	.st1{fill-rule:evenodd;clip-rule:evenodd;fill:#005251;}
</style>
<g>
	<path class="st0" d="M177.2,175.6l35.2,16.2L310,196l10-1.9v-48.9l-57,1.2l-71.3-9.9l-26.1-5.3L177.2,175.6z M0,154.7l90.5-5.5
		l50.7-14.1l12.2-24.3l-3.3-15.7l-6-8l-71.9,16.2L0,105.7L0,154.7z"/>
	<path class="st0" d="M0,195.9l0.1,0l96.5-5.9l50.7-14.1l12.2-24.3l-3.3-15.7l-6-7l-71.9,16.2L0,146.7L0,195.9z M191.7,136.4
		l59.5,15.4l68.8-0.3v-48.3l-49.8-0.2l-78.5-4.1L163,93.6L191.7,136.4z"/>
	<path class="st0" d="M172.7,77.4l37.9,22.3l85.6,4.7H320V58.4l-103.9-0.5l-43.4-16.8l-14.1,4.2L172.7,77.4z M0,104.4h72.2l55.9-5.5
		l26.4-17.2V61.5l-6.4-11.6l-74.8,8L0,59.4L0,104.4z"/>
	<path class="st1" d="M172.7,168.5V0h-24.6v168.5H172.7z M234.6,202H320v-20.2l-85.4,0.3L234.6,202z M237.6,159.1L320,159v-20.2
		l-82.5,0.3L237.6,159.1z M237,115.1l83-0.1l0-20.2l-83.1,0.1L237,115.1z M236.7,69.9L320,70V49.8l-83.4,0.1L236.7,69.9z M0,202
		h83.7l0.3-20.3l-84,0.2L0,202z M0,159.1l84.1-0.2l0-20.2l-84,0.2L0,159.1z M0,115.1l84.2,0.7l0-21.1L0,94.9L0,115.1z M0,70.1
		l84-0.2l0-20.2L0,49.9L0,70.1z"/>
	<g>
		<path class="st1" d="M82.8,69.9V49.7c2.5,0,61.3-0.8,65.3-45.3l24.5,1.5c-3,33.2-27.4,49-47.4,56.3c-20.7,7.6-40.7,7.7-41.5,7.7"
			/>
		<path class="st1" d="M237.1,69.9c-0.8,0-20.8-0.1-41.5-7.7c-20-7.4-44.4-23.1-47.4-56.3l24.5-1.5c1.7,18.7,12.8,32,33,39.4
			c15.7,5.8,31.6,6.1,31.7,6.1l0.1,20L237.1,69.9z"/>
		<path class="st1" d="M82.1,115.8l0.6-21.1c2.5,0,61.4,0.2,65.4-44.4l24.5,1.5c-3,33.2-27.4,49-47.4,56.3
			c-20.7,7.6-40.8,7.7-41.6,7.7"/>
		<path class="st1" d="M83.3,158.9l-0.5-20.2c2.5,0,61.4-0.6,65.3-45.2l24.5,1.5c-3,33.2-27.4,49-47.4,56.3
			c-20.7,7.6-40.7,7.5-41.5,7.5"/>
		<path class="st1" d="M82.6,202l0.8-20.3c2.5,0,60.7-2.1,64.7-46.6l24.5,1.5c-3,33.2-27.4,49-47.4,56.3
			c-20.7,7.6-40.7,9.1-41.6,9.1"/>
		<path class="st1" d="M237,115.1c-0.8,0-20.8-0.7-41.5-8.3c-20-7.4-44.4-23.1-47.4-56.3l24.5-1.5c1.7,18.7,12.8,32,33,39.4
			c15.7,5.8,31.8,6.5,31.9,6.5l0.9,20.2L237,115.1z"/>
		<path class="st1" d="M237.6,159.1c-0.8,0-19.4,0-40.1-7.6c-20-7.4-44.4-23.1-47.4-56.3l24.5-1.5c4,44.5,62,45.5,64.5,45.5l0,20
			L237.6,159.1z"/>
		<path class="st1" d="M237.1,202c-0.8,0-20.8-0.1-41.5-7.7c-20-7.4-44.4-23.1-47.4-56.3l24.5-1.5c1.7,18.7,12.8,32,33,39.4
			c15.7,5.8,31.3,6.2,31.5,6.2V202z"/>
	</g>
</g>
</svg>
