<svg width="117" height="31" xmlns="http://www.w3.org/2000/svg">
    <g fill="#26D780" fill-rule="nonzero">
        <path d="M8.053 14.746c5.433-.184 9.885-6.385 10.018-14.137l.004-.359h1c0 7.11-3.475 13.134-8.26 14.944l-.152.056.153.056c4.705 1.78 8.142 7.635 8.256 14.59l.003.354h-1c0-7.919-4.505-14.31-10.022-14.496l-.248-.004v-1l.248-.004z"/>
        <path d="M15.745 14.746C21.18 14.562 25.63 8.36 25.764.609l.003-.359h1c0 7.11-3.474 13.134-8.259 14.944l-.153.056.153.056c4.705 1.78 8.143 7.635 8.256 14.59l.003.354h-1c0-7.919-4.505-14.31-10.022-14.496l-.247-.004v-1l.247-.004zM1.13 14.746C6.563 14.562 11.015 8.36 11.148.609l.003-.359h1c0 7.11-3.474 13.134-8.258 14.944l-.153.056.153.056c4.704 1.78 8.142 7.635 8.256 14.59l.002.354h-1c0-7.919-4.504-14.31-10.021-14.496l-.248-.004v-1l.248-.004z"/>
        <path d="M.5 15.534v-1l116-.017v1z"/>
    </g>
</svg>
