<svg width="117" height="31" xmlns="http://www.w3.org/2000/svg">
    <g fill="#26D780" fill-rule="nonzero">
        <path d="M108.947 16.254c-5.433.184-9.885 6.385-10.018 14.137l-.004.359h-1c0-7.11 3.475-13.134 8.26-14.944l.152-.056-.153-.056c-4.705-1.78-8.142-7.635-8.256-14.59L97.925.75h1c0 7.919 4.505 14.31 10.022 14.496l.248.004v1l-.248.004z"/>
        <path d="M101.255 16.254c-5.434.184-9.885 6.385-10.019 14.137l-.003.359h-1c0-7.11 3.474-13.134 8.259-14.944l.153-.056-.153-.056c-4.705-1.78-8.143-7.635-8.256-14.59L90.233.75h1c0 7.919 4.505 14.31 10.022 14.496l.247.004v1l-.247.004zM115.87 16.254c-5.433.184-9.885 6.385-10.018 14.137l-.003.359h-1c0-7.11 3.474-13.134 8.258-14.944l.153-.056-.153-.056c-4.704-1.78-8.142-7.635-8.256-14.59L104.85.75h1c0 7.919 4.504 14.31 10.021 14.496l.248.004v1l-.248.004z"/>
        <path d="M116.5 15.466v1l-116 .017v-1z"/>
    </g>
</svg>
