<?xml version="1.0" encoding="utf-8"?>
<!-- Generator: Adobe Illustrator 26.1.0, SVG Export Plug-In . SVG Version: 6.00 Build 0)  -->
<svg version="1.1" id="a" xmlns="http://www.w3.org/2000/svg" xmlns:xlink="http://www.w3.org/1999/xlink" x="0px" y="0px"
	 viewBox="0 0 1 211" style="enable-background:new 0 0 1 211;" xml:space="preserve">
<style type="text/css">
	.st0{fill:#14E1D2;}
	.st1{fill:#26D780;}
	.st2{fill:#009B50;}
	.st3{fill:#004342;}
</style>
<path class="st0" d="M147.5,71.7c13.6,0,21.9-3.1,30.8-11.5l2.5-2.3l0,3.4c-0.3,20.6-15.4,36.2-35.2,36.2H0.1V71.7L147.5,71.7
	L147.5,71.7z"/>
<path class="st1" d="M145.6,117.6c14.2,0,24.6-3.6,32.7-11.5l2.5-2.4l-0.1,3.4c-0.3,20.7-15.4,36.2-35.2,36.2H0.1v-25.8L145.6,117.6
	L145.6,117.6z"/>
<path class="st2" d="M145.4,163.4c14.8,0,24.5-3.4,32.7-11.5l2.5-2.4l-0.1,3.5c-0.3,20.6-15.4,36.2-35.2,36.2H0v-25.8H145.4z"/>
<path class="st3" d="M194.9,0C189,25,174,50.7,145.7,50.7L0,50.6v22.9h147.5c13.4,0,22.3-3,31.8-11.9c-0.3,19.4-14.3,34.8-33.7,34.8
	H0v22.9h145.6c13.4,0,24.6-3.1,33.7-11.9c-0.3,19.4-14.3,34.8-33.7,34.8H0v22.9h145.6c13.4,0,24.2-2.6,33.7-11.9
	c-0.3,19.4-14.3,34.8-33.7,34.8H0V211h152.6c19.3,0,34.6-12.1,42.4-26.4V0z"/>
</svg>
